HIERARCHY
ROOT Hips
{
	OFFSET 0.000000 0.000000 0.000000
	CHANNELS 6 Xposition Yposition Zposition Zrotation Yrotation Xrotation 
	JOINT LHipJoint
	{
		OFFSET 0.000000 0.000000 0.000000
		CHANNELS 3 Zrotation Yrotation Xrotation
		JOINT LeftUpLeg
		{
			OFFSET 1.363060 -1.794630 0.839290
			CHANNELS 3 Zrotation Yrotation Xrotation
			JOINT LeftLeg
			{
				OFFSET 2.448110 -6.726130 0.000000
				CHANNELS 3 Zrotation Yrotation Xrotation
				JOINT LeftFoot
				{
					OFFSET 2.562200 -7.039590 0.000000
					CHANNELS 3 Zrotation Yrotation Xrotation
					JOINT LeftToeBase
					{
						OFFSET 0.157640 -0.433110 2.322550
						CHANNELS 3 Zrotation Yrotation Xrotation
						End Site
						{
							OFFSET 0.000000 0.000000 0.000000
						}
					}
				}
			}
		}
	}
	JOINT RHipJoint
	{
		OFFSET 0.000000 0.000000 0.000000
		CHANNELS 3 Zrotation Yrotation Xrotation
		JOINT RightUpLeg
		{
			OFFSET -1.305520 -1.794630 0.839290
			CHANNELS 3 Zrotation Yrotation Xrotation
			JOINT RightLeg
			{
				OFFSET -2.542530 -6.985550 0.000000
				CHANNELS 3 Zrotation Yrotation Xrotation
				JOINT RightFoot
				{
					OFFSET -2.568260 -7.056230 0.000000
					CHANNELS 3 Zrotation Yrotation Xrotation
					JOINT RightToeBase
					{
						OFFSET -0.164730 -0.452590 2.363150
						CHANNELS 3 Zrotation Yrotation Xrotation
						End Site
						{
							OFFSET 0.000000 0.000000 0.000000
						}
					}
				}
			}
		}
	}
	JOINT LowerBack
	{
		OFFSET 0.000000 0.000000 0.000000
		CHANNELS 3 Zrotation Yrotation Xrotation
		JOINT Spine
		{
			OFFSET 0.028270 2.035590 -0.193380
			CHANNELS 3 Zrotation Yrotation Xrotation
			JOINT Spine1
			{
				OFFSET 0.056720 2.048850 -0.042750
				CHANNELS 3 Zrotation Yrotation Xrotation
				JOINT Neck
				{
					OFFSET 0.000000 0.000000 0.000000
					CHANNELS 3 Zrotation Yrotation Xrotation
					JOINT Neck1
					{
						OFFSET -0.054170 1.746240 0.172020
						CHANNELS 3 Zrotation Yrotation Xrotation
						JOINT Head
						{
							OFFSET 0.104070 1.761360 -0.123970
							CHANNELS 3 Zrotation Yrotation Xrotation
							End Site
							{
								OFFSET 0.000000 0.000000 0.000000
							}
						}
					}
				}
				JOINT LeftShoulder
				{
					OFFSET 0.000000 0.000000 0.000000
					CHANNELS 3 Zrotation Yrotation Xrotation
					JOINT LeftArm
					{
						OFFSET 3.362410 1.200890 -0.311210
						CHANNELS 3 Zrotation Yrotation Xrotation
						JOINT LeftForeArm
						{
							OFFSET 4.983000 -0.000000 -0.000000
							CHANNELS 3 Zrotation Yrotation Xrotation
							JOINT LeftHand
							{
								OFFSET 3.483560 -0.000000 -0.000000
								CHANNELS 3 Zrotation Yrotation Xrotation
								JOINT LeftFingerBase
								{
									OFFSET 0.000000 0.000000 0.000000
									CHANNELS 3 Zrotation Yrotation Xrotation
									JOINT LeftHandIndex1
									{
										OFFSET 0.715260 -0.000000 -0.000000
										CHANNELS 3 Zrotation Yrotation Xrotation
										End Site
										{
											OFFSET 0.000000 0.000000 0.000000
										}
									}
								}
								JOINT LThumb
								{
									OFFSET 0.000000 0.000000 0.000000
									CHANNELS 3 Zrotation Yrotation Xrotation
									End Site
									{
										OFFSET 0.000000 0.000000 0.000000
									}
								}
							}
						}
					}
				}
				JOINT RightShoulder
				{
					OFFSET 0.000000 0.000000 0.000000
					CHANNELS 3 Zrotation Yrotation Xrotation
					JOINT RightArm
					{
						OFFSET -3.136600 1.374050 -0.404650
						CHANNELS 3 Zrotation Yrotation Xrotation
						JOINT RightForeArm
						{
							OFFSET -5.241900 -0.000000 -0.000000
							CHANNELS 3 Zrotation Yrotation Xrotation
							JOINT RightHand
							{
								OFFSET -3.444170 -0.000000 -0.000000
								CHANNELS 3 Zrotation Yrotation Xrotation
								JOINT RightFingerBase
								{
									OFFSET 0.000000 0.000000 0.000000
									CHANNELS 3 Zrotation Yrotation Xrotation
									JOINT RightHandIndex1
									{
										OFFSET -0.622530 -0.000000 -0.000000
										CHANNELS 3 Zrotation Yrotation Xrotation
										End Site
										{
											OFFSET 0.000000 0.000000 0.000000
										}
									}
								}
								JOINT RThumb
								{
									OFFSET 0.000000 0.000000 0.000000
									CHANNELS 3 Zrotation Yrotation Xrotation
									End Site
									{
										OFFSET 0.000000 0.000000 0.000000
									}
								}
							}
						}
					}
				}
			}
		}
	}
}
MOTION
Frames: 12
Frame Time: 0.008333
-11.497658 16.644363 -2.291135 11.592212 83.750954 13.197229 -10.539566 0.596656 2.018172 -8.637256 10.932133 -34.060315 -2.141229 0.327942 17.991322 1.056158 6.730720 0.387580 1.127500 0.000000 -34.434799 10.263665 -3.381365 -2.697053 -2.511126 -19.983629 4.828181 -0.727279 -2.641614 38.281718 -2.453429 -14.557768 10.563996 -4.526300 0.000000 -68.527600 -4.236017 0.105495 -1.512420 -1.290697 0.336953 -2.668227 -5.024907 0.278486 2.533092 11.344778 -14.519823 -10.619874 -1.701978 -0.095707 -0.769277 0.000000 0.000000 0.000000 -6.134886 22.978991 1.497566 -83.086241 26.235117 -16.835912 -4.211231 -9.750148 -0.018849 -4.605792 6.710380 -0.271099 -0.073235 -0.119076 -0.000000 0.000000 0.000000 0.000000 0.000000 0.000000 0.000000 13.034425 -9.257388 0.344082 44.544270 6.628008 6.271725 2.047416 47.927002 0.009119 0.415545 4.491947 0.014028 0.086430 -0.124234 0.000000 0.000000 0.000000 0.000000 0.000000 0.000000 0.000000 
-11.285408 16.625878 -2.291756 13.738595 83.459046 14.960593 -10.615345 0.622870 1.756526 -8.745161 11.510713 -33.891198 -2.034908 0.514135 20.059814 1.051347 6.840412 1.075305 1.194400 -0.000000 -34.381200 10.419775 -3.293542 -2.804177 -3.203696 -20.391190 3.760858 -0.878515 -2.795030 41.250764 -2.728077 -16.213622 10.752482 -5.070600 -0.000000 -61.094500 -4.536225 -0.046572 -1.191981 -1.348333 0.214666 -2.617897 -5.068305 0.161070 2.488964 11.499252 -14.537136 -10.632331 -1.741294 -0.098366 -0.775885 0.000000 0.000000 0.000000 -6.005046 22.723280 1.515886 -83.358155 25.953326 -16.503382 -4.195235 -9.919944 -0.018856 -4.764942 6.702933 -0.280400 -0.070885 -0.118623 -0.000000 0.000000 0.000000 0.000000 0.000000 0.000000 0.000000 13.347826 -9.320218 0.330030 45.168286 6.099318 6.151828 2.092720 47.522036 0.009075 0.390752 4.420536 0.012731 0.088230 -0.120246 0.000000 0.000000 0.000000 0.000000 0.000000 0.000000 0.000000 
-11.078025 16.605260 -2.289267 15.684782 83.152710 16.556901 -10.673246 0.656060 1.477234 -8.912240 12.229902 -33.799381 -1.940690 0.691958 22.138936 1.043618 6.885849 1.651895 1.236799 0.000000 -34.032800 10.573530 -3.199712 -2.898875 -3.775763 -20.729528 2.517768 -0.989733 -2.956125 44.293180 -2.959960 -17.639658 10.149980 -5.352000 0.000000 -53.043100 -4.827898 -0.218329 -0.865214 -1.403724 0.071494 -2.568954 -5.114926 0.022690 2.437016 11.637013 -14.527045 -10.639764 -1.786505 -0.101567 -0.781014 0.000000 0.000000 0.000000 -5.881181 22.420342 1.533434 -83.528924 25.571570 -15.916459 -4.173011 -10.143491 -0.018716 -4.885776 6.676515 -0.286599 -0.068505 -0.117746 -0.000000 0.000000 0.000000 0.000000 0.000000 0.000000 0.000000 13.647417 -9.361109 0.314340 45.942580 5.548879 6.000781 2.144011 47.045793 0.009050 0.362752 4.354496 0.011435 0.090222 -0.116289 0.000000 0.000000 0.000000 0.000000 0.000000 0.000000 0.000000 
-10.875236 16.583632 -2.283843 17.379434 82.824734 17.952428 -10.713493 0.695694 1.198966 -9.106075 13.027482 -33.757202 -1.862917 0.853928 24.137809 1.037570 6.896112 2.031167 1.250200 0.000000 -33.467801 10.719237 -3.105407 -2.977085 -4.196902 -20.986034 1.091640 -1.071647 -3.127007 47.348956 -3.141124 -18.767151 8.825497 -5.317300 0.000001 -45.162800 -5.101600 -0.404126 -0.555181 -1.455568 -0.088320 -2.524928 -5.165399 -0.132732 2.380301 11.756471 -14.497210 -10.640779 -1.838146 -0.105408 -0.784051 0.000000 0.000000 0.000000 -5.768353 22.077436 1.546514 -83.580532 25.089423 -15.085001 -4.144214 -10.408173 -0.018390 -4.946529 6.624858 -0.288092 -0.066232 -0.116411 -0.000000 0.000000 0.000000 0.000000 0.000000 0.000000 0.000000 13.937066 -9.388051 0.296576 46.855895 4.980966 5.815032 2.201459 46.491705 0.009052 0.335273 4.298017 0.010140 0.092339 -0.112369 0.000000 0.000000 0.000000 0.000000 0.000000 0.000000 0.000000 
-10.676571 16.562114 -2.275776 18.776105 82.470549 19.112547 -10.738113 0.741681 0.935885 -9.301644 13.850946 -33.743716 -1.805844 0.997226 26.002448 1.035280 6.891872 2.141566 1.231801 0.000000 -32.799800 10.852138 -3.013293 -3.034513 -4.441126 -21.151814 -0.516872 -1.133359 -3.304804 50.362135 -3.270244 -19.565274 6.901343 -4.964900 -0.000000 -38.044500 -5.346516 -0.598500 -0.280991 -1.502115 -0.260514 -2.487946 -5.219559 -0.301145 2.324348 11.857987 -14.465293 -10.637209 -1.895841 -0.109859 -0.785293 0.000000 0.000000 0.000000 -5.669041 21.710063 1.551180 -83.496811 24.499730 -14.028965 -4.108751 -10.691490 -0.017846 -4.924270 6.542911 -0.283281 -0.064226 -0.114574 -0.000000 0.000000 0.000000 0.000000 0.000000 0.000000 0.000000 14.223370 -9.420041 0.276146 47.888596 4.413730 5.603186 2.265120 45.847526 0.009084 0.304829 4.256105 0.008746 0.094592 -0.108484 0.000000 0.000000 0.000000 0.000000 0.000000 0.000000 0.000000 
-10.481530 16.541743 -2.265465 19.846317 82.087677 20.011921 -10.750554 0.794159 0.697619 -9.479798 14.659380 -33.738011 -1.772066 1.121773 27.705273 1.037327 6.887202 1.937751 1.180400 -0.000000 -32.140400 10.968410 -2.924149 -3.068918 -4.494686 -21.226980 -2.295767 -1.179266 -3.484241 53.284581 -3.348459 -20.022685 4.492706 -4.324400 -0.000000 -31.806800 -5.551539 -0.795567 -0.055352 -1.541673 -0.440140 -2.460640 -5.277955 -0.477832 2.268052 11.938486 -14.428674 -10.624377 -1.960256 -0.115070 -0.783275 0.000000 0.000000 0.000000 -5.588454 21.311124 1.545676 -83.272116 23.820585 -12.790508 -4.067024 -10.993440 -0.017081 -4.803020 6.432956 -0.271666 -0.062615 -0.112250 -0.000000 0.000000 0.000000 0.000000 0.000000 0.000000 0.000000 14.504896 -9.453962 0.253110 49.031235 3.826336 5.341966 2.335187 45.114563 0.009154 0.279895 4.229254 0.007652 0.096860 -0.104634 0.000000 0.000000 0.000000 0.000000 0.000000 0.000000 0.000000 
-10.289563 16.523303 -2.253212 20.603420 81.676202 20.658868 -10.754381 0.852863 0.488577 -9.629283 15.423856 -33.716376 -1.761845 1.228544 29.234962 1.043819 6.892142 1.410113 1.096900 0.000000 -31.600400 11.066230 -2.837312 -3.081006 -4.361165 -21.220791 -4.220538 -1.209117 -3.659629 56.069899 -3.378701 -20.144283 1.707026 -3.451200 -0.000000 -26.294901 -5.712222 -0.991127 0.117514 -1.573407 -0.623163 -2.441692 -5.338955 -0.658645 2.219466 12.001879 -14.413761 -10.608421 -2.029474 -0.120795 -0.779649 0.000000 0.000000 0.000000 -5.517206 20.905687 1.527477 -82.902116 23.033378 -11.414272 -4.020299 -11.275527 -0.016093 -4.565381 6.294540 -0.252445 -0.061598 -0.109391 -0.000000 0.000000 0.000000 0.000000 0.000000 0.000000 0.000000 14.789915 -9.518377 0.226512 50.256341 3.247327 5.050696 2.411114 44.277297 0.009253 0.246563 4.222376 0.006359 0.099232 -0.100815 -0.000000 0.000000 0.000000 0.000000 0.000000 0.000000 0.000000 
-10.100159 16.507370 -2.239569 21.011589 81.237548 21.005405 -10.755069 0.917615 0.309494 -9.729544 16.130757 -33.654610 -1.773171 1.320148 30.594408 1.054749 6.908302 0.579705 0.982500 -0.000000 -31.245201 11.141947 -2.750139 -3.074223 -4.042104 -21.142646 -6.248392 -1.220822 -3.823645 58.665188 -3.367060 -19.959562 -1.333342 -2.427100 -0.000001 -21.330500 -5.816376 -1.180536 0.241894 -1.595020 -0.805311 -2.428610 -5.401188 -0.839048 2.185422 12.051226 -14.434862 -10.594978 -2.102161 -0.126830 -0.776022 0.000000 0.000000 0.000000 -5.446142 20.521224 1.496104 -82.392916 22.113063 -9.978803 -3.970496 -11.490065 -0.014902 -4.202930 6.128851 -0.226019 -0.061357 -0.105909 -0.000000 0.000000 0.000000 0.000000 0.000000 0.000000 0.000000 15.084592 -9.627622 0.195343 51.534359 2.688117 4.738302 2.491991 43.331666 0.009368 0.197134 4.234911 0.004365 0.101707 -0.096984 -0.000000 0.000000 0.000000 0.000000 0.000000 0.000000 0.000000 
-9.913071 16.494383 -2.224101 21.252355 80.774513 21.215761 -10.751749 0.987200 0.157178 -9.798487 16.762800 -33.513762 -1.801874 1.394446 31.771699 1.071618 6.953587 -0.491887 0.844500 0.000000 -31.114900 11.202566 -2.661986 -3.050155 -3.588676 -21.009791 -8.342833 -1.209983 -3.974867 61.028609 -3.320728 -19.506345 -4.494072 -1.344100 0.000001 -16.781000 -5.878205 -1.360123 0.321479 -1.609171 -0.981723 -2.425133 -5.463762 -1.014405 2.146026 12.071221 -14.459720 -10.562738 -2.178936 -0.133557 -0.766533 0.000000 0.000000 0.000000 -5.401129 20.081701 1.448048 -81.752955 21.156745 -8.505866 -3.916335 -11.635794 -0.013147 -3.679490 5.665037 -0.182583 -0.061765 -0.101568 -0.000000 0.000000 0.000000 0.000000 0.000000 0.000000 0.000000 15.355354 -9.752931 0.162888 52.904765 2.069808 4.309496 2.578676 42.283773 0.009507 0.149518 4.259365 0.002469 0.104098 -0.093233 -0.000000 0.000000 0.000000 0.000000 0.000000 0.000000 0.000000 
-9.727936 16.484460 -2.207651 21.221315 80.290837 21.166244 -10.752041 1.061391 0.026981 -9.801919 17.331741 -33.275626 -1.842871 1.456159 32.784967 1.094108 7.019089 -1.732439 0.685900 -0.000000 -31.226900 11.241842 -2.567993 -3.015896 -2.995776 -20.830872 -10.444229 -1.177253 -4.105541 63.109071 -3.251661 -18.858610 -7.614046 -0.301400 0.000000 -12.724600 -5.879491 -1.528990 0.373053 -1.612652 -1.152164 -2.424574 -5.525665 -1.183877 2.117866 12.074886 -14.516617 -10.529197 -2.256542 -0.140406 -0.756181 0.000000 0.000000 0.000000 -5.338684 19.638698 1.395184 -81.008177 20.118570 -7.085385 -3.866501 -11.827299 -0.011749 -3.091575 5.481541 -0.147849 -0.063058 -0.097397 -0.000000 0.000000 0.000000 0.000000 0.000000 0.000000 0.000000 15.623230 -9.916230 0.127665 54.310321 1.443375 3.812611 2.669270 41.124065 0.009649 0.081939 4.298661 -0.000129 0.106528 -0.089542 -0.000000 0.000000 0.000000 0.000000 0.000000 0.000000 0.000000 
-9.544689 16.477634 -2.189938 21.040092 79.792945 20.961196 -10.755817 1.138583 -0.088283 -9.749641 17.840116 -32.915480 -1.890158 1.504926 33.634770 1.122583 7.113622 -3.048322 0.515700 -0.000001 -31.560800 11.265049 -2.466755 -2.975966 -2.305843 -20.624837 -12.514566 -1.123973 -4.215770 64.879270 -3.170946 -18.089245 -10.547048 0.626200 0.000000 -9.275400 -5.834631 -1.686913 0.409465 -1.607749 -1.314957 -2.423902 -5.583889 -1.345416 2.101589 12.063090 -14.614799 -10.496296 -2.332921 -0.147153 -0.745758 0.000000 0.000000 0.000000 -5.259274 19.201783 1.332861 -80.167774 18.994618 -5.758441 -3.820994 -11.965737 -0.010306 -2.409612 5.278766 -0.110212 -0.065205 -0.092810 -0.000000 0.000000 0.000000 0.000000 0.000000 0.000000 0.000000 15.883293 -10.132470 0.089985 55.745063 0.815799 3.240036 2.762481 39.844398 0.009778 -0.017861 4.349625 -0.004130 0.109037 -0.085886 -0.000000 0.000000 0.000000 0.000000 0.000000 0.000000 0.000000 
-9.363379 16.473770 -2.170849 20.767140 79.287565 20.642862 -10.764610 1.218384 -0.195048 -9.642475 18.300448 -32.420419 -1.937899 1.542222 34.329504 1.156022 7.238557 -4.345906 0.342899 0.000000 -32.080300 11.274140 -2.356904 -2.935105 -1.545865 -20.409677 -14.518556 -1.055097 -4.305059 66.322273 -3.090345 -17.282464 -13.174206 1.395100 0.000000 -6.552400 -5.748757 -1.835473 0.443599 -1.595640 -1.471106 -2.422603 -5.638682 -1.499969 2.089670 12.032594 -14.731763 -10.457130 -2.407763 -0.153851 -0.733516 0.000000 0.000000 0.000000 -5.158955 18.739539 1.268753 -79.251253 17.838480 -4.561371 -3.782025 -12.166404 -0.009171 -1.672482 5.270072 -0.075275 -0.068118 -0.088239 -0.000000 0.000000 0.000000 0.000000 0.000000 0.000000 0.000000 16.123806 -10.376658 0.052147 57.213086 0.152689 2.539535 2.857531 38.452761 0.009887 -0.140325 4.404610 -0.009134 0.111482 -0.082310 -0.000000 0.000000 0.000000 0.000000 0.000000 0.000000 0.000000 
